<svg fill="none" height="20" viewBox="0 0 20 20" width="20" xmlns="http://www.w3.org/2000/svg"><g fill="#333"><path d="m10 20.01c5.5228 0 10-4.4771 10-10 0-5.52284-4.4772-9.9999902-10-9.9999902-5.52285 0-10 4.4771502-10 9.9999902 0 5.5229 4.47715 10 10 10z" opacity=".4"/><path d="m10 4.93994c-2.07 0-3.75 1.68-3.75 3.75 0 2.02996 1.59 3.67996 3.7 3.73996h.09.07.02c2.02-.07 3.61-1.71 3.62-3.73996 0-2.07-1.68-3.75-3.75-3.75z"/><path d="m16.7807 17.36c-1.78 1.64-4.16 2.65-6.78 2.65s-5-1.01-6.78-2.65c.24-.91.89-1.74 1.84-2.38 2.73-1.82 7.17-1.82 9.88 0 .96.64 1.6 1.47 1.84 2.38z"/></g></svg>